PathFileType	4	(X/Y/Z)	Patient4_TMGait_0pt7_02_right_50.trc.trc
DataRate	CameraRate	NumFrames	NumMarkers	Units	OrigDataRate	OrigDataStartFrame	OrigNumFrames
83.333333333333	83.333333333333	5	33	mm	83.333333333333	1	       141
Frame#	Time	Sacral			L.Shoulder			Chest			R.Shoulder			Neck			R.ASIS			L.ASIS			R.Thigh.Superior			R.Thigh.Lateral			R.Thigh.Inferior			R.Patella			L.Thigh.Superior			L.Thigh.Lateral			L.Thigh.Inferior			L.Patella			L.Shank.Superior			L.Shank.Lateral			L.Shank.Inferior			R.Shank.Superior			R.Shank.Lateral			R.Shank.Inferior			R.Heel			R.Midfoot.Superior			R.Midfoot.Lateral			R.Toe			L.Heel			L.Midfoot.Lateral			L.Midfoot.Superior			L.Toe			L.Elbow			L.Wrist			R.Elbow			R.Wrist			
		X1	Y1	Z1	X2	Y2	Z2	X3	Y3	Z3	X4	Y4	Z4	X5	Y5	Z5	X6	Y6	Z6	X7	Y7	Z7	X8	Y8	Z8	X9	Y9	Z9	X10	Y10	Z10	X11	Y11	Z11	X12	Y12	Z12	X13	Y13	Z13	X14	Y14	Z14	X15	Y15	Z15	X16	Y16	Z16	X17	Y17	Z17	X18	Y18	Z18	X19	Y19	Z19	X20	Y20	Z20	X21	Y21	Z21	X22	Y22	Z22	X23	Y23	Z23	X24	Y24	Z24	X25	Y25	Z25	X26	Y26	Z26	X27	Y27	Z27	X28	Y28	Z28	X29	Y29	Z29	X30	Y30	Z30	X31	Y31	Z31	X32	Y32	Z32	X33	Y33	Z33	

1	56.660000000000	765.169440752645	1014.013370599899	426.762255693987	961.215297255878	1425.249797117965	222.659736265015	1068.542328450492	1358.154810759686	383.517212692042	994.089216033268	1446.999047001582	556.029499135323	969.105096304620	1492.777215946575	374.189315789661	992.601874426254	944.629221668351	538.898412407917	977.343385406170	960.571523178709	266.247413038105	1081.313769946151	785.934612146922	505.189877290801	1054.834630121400	664.652455478514	583.304434675352	1144.175023024028	631.225991269449	499.921938658535	1170.324515096309	515.226427048043	522.243598221889	1029.936193900658	755.955609233546	295.699407173138	945.109387854955	640.061208352740	235.300395366559	1030.107140253207	563.903285263657	300.470000115670	1031.166872840162	495.523084213013	309.974521345281	1009.100356502190	423.147611673867	299.828299245222	926.277755444276	304.092457517152	248.429659414273	983.571484313269	196.581989719289	320.823099357470	1091.102318915935	440.550955326395	530.918931561567	968.375090808379	406.509235234580	592.711092142252	947.608941812179	299.239288976259	543.983272672936	743.743429232895	248.589049347676	518.112955529975	909.974137205254	181.356199850444	559.742803757353	800.002016401896	186.859213397617	592.091753253005	967.088755505583	64.878209864009	585.380541056897	862.204607866034	37.532740603400	363.729303903583	935.827621182161	34.582784914763	282.204418089486	1017.190971315200	97.784534936639	308.157615413194	1146.412282562250	50.160881817143	280.023741443490	973.777152635148	1075.891827968748	99.298840182760	1094.979843901458	843.640554874264	106.169842145241	951.286755015341	1104.691508621259	686.472141725993	1141.589053006648	931.636678530561	645.402838691239	
2	56.672000000000	763.729609154521	1014.105351935891	425.285893946141	962.067473722350	1425.750551008201	222.765728819636	1067.955269884655	1358.122930547637	384.384222633763	992.151394548245	1446.902985372988	556.381724217540	968.791711583967	1492.995110983261	374.353920403637	990.777595281787	945.246749521535	539.050533471240	977.247579550691	961.210890257963	265.890966465200	1081.605259140705	789.745815943995	504.644714716850	1058.060301473048	668.382689792875	583.252768806599	1147.290642853386	636.342210349955	499.287082209942	1176.374234357912	521.710243715782	521.799492558719	1026.963784592398	755.066012343136	295.855440772623	941.031719654568	640.106462662708	234.710698600754	1024.439725139240	562.960257667032	300.362464031401	1024.482080122039	494.720665273311	309.994488663480	1002.324498887002	422.638565052972	299.635966431447	919.057552444308	303.963394863412	248.078192716020	975.421773949797	196.274238402375	320.851355108835	1100.138218890371	444.764628838504	531.004064990718	979.698439290492	405.832001654416	593.699855076976	963.054169816169	297.899522895649	545.077632304410	761.616908223827	238.992438554601	520.909560475911	930.462225732499	178.595287899753	560.976054845789	820.881858131389	179.704983061571	594.294993971583	992.370245764747	64.807694350849	586.122798879923	853.256590640761	37.513358268698	363.772734619938	926.912622557207	34.548125917858	282.218354983862	1008.298091105887	97.690436917298	308.275621359653	1137.527459689563	50.075013958742	280.109703778880	982.291517364492	1079.128348062856	95.697360240979	1115.111590049548	854.292795027838	102.767554981810	944.473338768958	1104.491522377793	686.082223922249	1114.714109513294	914.861084941857	655.128232800233	
3	56.684000000000	762.320616665218	1014.195065550470	423.843993252700	962.917483749165	1426.240651177229	222.906088009229	1067.381586743790	1358.085611565176	385.252463882079	990.282693285581	1446.785991003380	556.760671971773	968.498006786384	1493.198289151611	374.555819256880	988.968004362647	945.814580428052	539.196530100874	977.131760975913	961.812315021110	265.557444360732	1081.868051103437	793.453115633514	504.145438260702	1061.130162575650	672.003442721428	583.233218539752	1150.279230012642	641.319984997758	498.735920955855	1182.219754294896	528.061991780974	521.439352280294	1024.039002189438	754.180232308262	296.001952082281	936.991654823195	640.150014361767	234.121528543802	1018.807657851951	562.016160895840	300.249964346232	1017.849092830140	493.933494712015	309.998107728425	995.597155111425	422.134947230297	299.438907243891	911.901557029838	303.831379106894	247.718558236216	967.349507113193	195.970563156105	320.874080117222	1108.984330432173	448.864566307835	531.142290163916	990.855611640230	405.030930101449	594.700025283895	978.386860310378	296.455682233056	546.184335278842	779.451500251467	229.266185630173	523.633077989608	950.872933149172	175.748900454444	562.203019437929	841.692223823664	172.453674890651	596.446458124033	1017.577814554831	64.701624957786	586.894131867958	844.407231079727	37.491467309965	363.812037439966	918.094543127150	34.511269708335	282.232651036593	999.500809042121	97.601307520435	308.388771064415	1128.738490232859	49.994583394020	280.193193827820	990.634916131379	1082.357367852199	92.184286378795	1134.880723300296	864.961476295120	99.485244651421	937.809617322698	1104.275994866223	685.708434260613	1087.887149033574	898.799324756754	664.741194132203	
4	56.696000000000	760.984736658059	1014.276195570713	422.472656913188	963.774066684253	1426.706750818483	223.128717740932	1066.845050221615	1358.029296005452	386.137791882990	988.558426479835	1446.616876392669	557.205550726351	968.256664877062	1493.365671271158	374.845167761932	987.199993480381	946.273232953459	539.336596262840	976.990151361081	962.340750794811	265.272225066156	1082.044696390952	796.897815065612	503.752972384956	1063.836989120219	675.347819276967	583.285785845627	1152.967784822183	645.953597410371	498.367030058051	1187.604570675544	534.104311683744	521.251968730238	1021.191150707354	753.291310795529	296.131744499690	932.994194671200	640.189203571016	233.537744654144	1013.209587452987	561.065795962052	300.124653551715	1011.274444650688	493.166868800696	309.969914087918	988.919514308377	421.639405111724	299.232281798488	904.815791239476	303.696766907914	247.342960710363	959.369314974161	195.674012229402	320.884053400283	1117.433769136312	452.713577217222	531.392012090297	1001.728109390479	403.931061740869	595.732276049382	993.589334553171	294.795958743207	547.319364951470	797.425809007328	219.211387104477	526.214321305978	971.289391769812	172.769406892444	563.430085468881	862.575917692145	164.988895379526	598.498995397325	1042.810812381967	64.638769367999	587.731113716352	835.684430293934	37.468071239733	363.843083418314	909.398241456960	34.471631297370	282.246772674433	990.825241595884	97.519201155221	308.492033120979	1120.069963350227	49.919986286361	280.271614864100	998.665265005885	1085.576081718337	88.848685687525	1153.988584107761	875.747353781506	96.449466394318	931.335460370756	1104.089174641543	685.411417144306	1061.094538786268	884.175389291955	674.129877086584	
5	56.708000000000	759.759460842307	1014.345074149587	421.199731115563	964.647947350478	1427.137704813204	223.477003510415	1066.368961158741	1357.939637411007	387.056841613527	987.043715861382	1446.366976956724	557.752730782678	968.099519777511	1493.478307934676	375.267386437662	985.500974221968	946.572218437117	539.474384938559	976.829703561549	962.775079307286	265.055029707584	1082.074741668498	799.932005328710	503.520427795283	1065.992883328558	678.256839594562	583.441443027447	1155.200867003007	650.051314206809	498.266491794509	1192.304899459847	539.675610606830	521.315018076037	1018.436097953912	752.388557541351	296.241196499306	929.032479487671	640.221355889588	232.966209985557	1007.633268003187	560.104286070696	299.980195230071	1004.749552750945	492.423020429707	309.898991110146	982.277235398494	421.153206400939	299.014189486437	897.785571816718	303.561100556710	246.946242262078	951.471837978920	195.386033318124	320.875884296744	1125.312955389381	456.192428349335	531.804591448092	1012.238169999310	402.374372779288	596.818315042976	1008.681407562463	292.830423693263	548.498340223681	815.766000691672	208.650583847951	528.596039966622	991.836307836427	169.633798121868	564.666624101889	883.725500007274	157.214523153431	600.416760546055	1068.208122141683	64.724068538515	588.663398644867	827.086177618858	37.445302043943	363.861900254004	900.818618483374	34.429279409193	282.259820268418	982.267843809145	97.444199446372	308.581676920182	1111.516514812509	49.849384031189	280.342964640573	1006.276877047695	1088.781435169123	85.763295048889	1172.215996533111	886.757343346503	93.761973963645	925.023634272707	1103.987387194207	685.252022323011	1034.334247317135	871.589613337482	683.196305504585	
